<?xml version="1.0" encoding="UTF-8"?>
<svg version="1.1" xmlns="http://www.w3.org/2000/svg" width="100" height="100">
<path d="M0 0 C10.06866931 7.25087772 17.72756886 16.79280068 20.3125 29.25 C21.70668558 45.91292143 19.18676434 58.15716957 8.640625 71.33984375 C2.22382219 78.48333577 -8.09918475 84.61508614 -17.80297852 85.42700195 C-34.86566428 85.88895149 -46.79126814 83.44661518 -59.8125 71.75 C-70.07212814 61.14084545 -72.17133125 48.37416494 -71.96484375 34.2578125 C-71.50503107 21.94581333 -64.87448062 11.59167312 -56.171875 3.17578125 C-39.79726859 -9.51711334 -17.57628553 -10.86641977 0 0 Z M-58.9375 13.9375 C-66.28176943 24.70772751 -68.4345724 35.43714363 -66.6875 48.25 C-63.82067311 59.57838643 -56.71633625 69.2569476 -46.6875 75.25 C-36.33818154 81.25928168 -24.72030656 82.28282841 -13.18359375 79.36328125 C-0.95157961 74.66106381 7.44364601 66.50710655 13.1875 54.875 C17.0118989 45.06566516 17.02887852 33.51760591 13.25 23.6875 C7.46713598 11.94308797 -0.92938237 3.93575978 -13.1484375 -0.828125 C-30.47362548 -5.34108787 -47.53438223 -0.01250702 -58.9375 13.9375 Z " fill="#FFFFFF" transform="translate(75.6875,10.75)"/>
<path d="M0 0 C4.89304699 3.49002277 4.89304699 3.49002277 6.0546875 7.8046875 C6.20293964 12.25225172 5.3370786 14.68626207 3.1796875 18.5546875 C1.3046875 20.5546875 1.3046875 20.5546875 -0.8203125 21.5546875 C-3.5703125 21.2421875 -3.5703125 21.2421875 -5.8203125 20.5546875 C-5.4903125 19.5440625 -5.1603125 18.5334375 -4.8203125 17.4921875 C-3.76358689 13.7785518 -3.51664806 10.42640914 -3.8203125 6.5546875 C-5.73037802 4.23152579 -5.73037802 4.23152579 -9.0078125 4.1796875 C-13.45466581 4.61708291 -16.51060193 5.59416658 -19.8203125 8.5546875 C-26.66081491 17.43478926 -28.85338055 26.48148938 -27.8203125 37.5546875 C-26.61461747 43.11218803 -24.40874951 47.03332887 -19.8203125 50.5546875 C-14.99136731 52.12934354 -11.48331853 51.43625134 -6.8203125 49.5546875 C-3.00680246 46.96694855 0.0072488 44.06355466 2.4921875 40.1796875 C3.0490625 39.3134375 3.6059375 38.4471875 4.1796875 37.5546875 C4.8396875 37.5546875 5.4996875 37.5546875 6.1796875 37.5546875 C7.0075128 42.93555192 5.19660146 46.14161506 2.125 50.36328125 C-2.25814707 55.30092283 -6.76521649 58.15093032 -13.3671875 59.0234375 C-20.6746907 59.20843758 -26.25440408 58.80755816 -31.8671875 53.6875 C-32.42921875 53.02492187 -32.99125 52.36234375 -33.5703125 51.6796875 C-34.14265625 51.02226563 -34.715 50.36484375 -35.3046875 49.6875 C-40.36978772 42.55980742 -40.60373691 32.76458586 -39.1953125 24.3671875 C-36.36835154 12.96695932 -30.52075338 5.7588857 -20.6328125 -0.4453125 C-14.12400797 -2.15253992 -6.14484716 -3.1490214 0 0 Z " fill="#FFFFFF" transform="translate(64.8203125,21.4453125)"/>
</svg>
