<svg width="63" height="21" viewBox="0 0 63 21" fill="none" xmlns="http://www.w3.org/2000/svg">
<path d="M62.0906 13.6906C61.9969 13.6906 61.9031 13.7531 61.8406 13.9094C61.2125 15.725 60.3344 16.8219 59.6156 16.8219C59.2094 16.8219 59.0531 16.3531 59.0531 15.6656C59.0531 13.8781 60.1156 10.0875 60.6469 8.33437C60.7094 8.11562 60.7406 7.92813 60.7406 7.77188C60.7406 7.26875 60.4594 7.01562 59.7719 7.01562C59.0531 7.01562 58.2375 7.29688 57.4844 8.64688C57.2344 7.45625 56.4219 6.95313 55.2906 6.95313C54.0094 6.95313 52.7531 7.8 51.7219 9.14688C50.6875 10.4938 49.4656 10.9344 48.5563 10.7125C49.2125 9.11875 49.4625 7.89375 49.4625 7.01562C49.4625 5.60937 48.775 4.7625 47.65 4.7625C45.9562 4.7625 44.9844 6.39063 44.9844 8.08125C44.9844 9.39688 45.5781 10.7438 46.8969 11.4031C45.8 13.8781 44.2031 16.1344 43.575 16.1344C42.7938 16.1344 42.5438 12.2812 42.6063 9.52187C42.6375 7.95937 42.7625 7.86563 42.7625 7.39375C42.7625 7.1125 42.575 6.925 41.8531 6.925C40.1906 6.925 39.6594 8.33125 39.5969 9.9625C39.5656 10.5875 39.4719 11.1813 39.3156 11.7781C38.6281 14.2531 37.1844 16.1656 36.2437 16.1656C35.8062 16.1656 35.6813 15.7281 35.6813 15.1625C35.6813 13.375 36.6813 11.1219 36.6813 9.20938C36.6813 7.80313 36.0563 6.92188 34.9 6.92188C33.5187 6.92188 31.7344 8.55313 30.0125 11.5906C30.575 9.27188 30.7938 7.01875 29.1344 7.01875C28.7594 7.01875 28.4146 7.1125 28.1 7.3C27.9935 7.34931 27.9041 7.42905 27.8429 7.52916C27.7817 7.62928 27.7516 7.74527 27.7563 7.8625C27.9125 10.3375 25.75 16.6969 23.7156 16.6969C23.3406 16.6969 23.1531 16.2906 23.1531 15.6344C23.1531 13.8469 24.2156 10.0563 24.7469 8.3C24.8053 8.10734 24.8368 7.90754 24.8406 7.70625C24.8406 7.2375 24.5594 6.9875 23.8719 6.9875C23.1531 6.9875 22.3375 7.26875 21.5844 8.6125C21.3031 7.425 20.5219 6.925 19.3906 6.925C17.5437 6.925 15.5063 8.8625 14.5969 11.4031C13.3781 14.7875 10.9656 18.075 7.675 18.075C4.7 18.075 3.13125 15.6 3.13125 11.6844C3.13125 6.01563 7.3 1.40938 10.3687 1.40938C11.8406 1.40938 12.5313 2.34688 12.5313 3.79063C12.5313 5.54375 11.5625 6.32812 11.5625 7.01562C11.5625 7.20312 11.7188 7.42188 12.0625 7.42188C13.4062 7.42188 14.975 5.85938 14.975 3.69688C14.975 1.53438 13.2812 0 10.2125 0C5.10625 0 0 5.10625 0 11.6875C0 16.9156 2.56875 20.05 7.01875 20.05C10.0562 20.05 12.7188 17.7 14.1281 14.9438C14.2844 17.2313 15.3188 18.4188 16.9156 18.4188C18.325 18.4188 19.4531 17.575 20.3312 16.1031C20.675 17.6344 21.55 18.3875 22.7125 18.3875C24.025 18.3875 25.1562 17.5438 26.1875 16.0094C26.1875 17.2281 26.4375 18.3875 27.5063 18.3875C28.0063 18.3875 28.6 18.2625 28.6938 17.825C29.8219 13.2188 32.5812 9.42813 33.425 9.42813C33.675 9.42813 33.7375 9.67813 33.7375 9.95938C33.7375 11.2156 32.8625 13.7844 32.8625 15.4125C32.8625 17.2 33.6125 18.3563 35.1813 18.3563C36.9031 18.3563 38.6562 16.2594 39.8156 13.1562C40.1906 16.0406 40.975 18.3563 42.1969 18.3563C43.7 18.3563 46.425 15.1625 48.0563 11.7781C48.6813 11.8719 49.6531 11.8406 50.5938 11.1844C50.1875 12.1844 49.9688 13.2813 49.9688 14.3469C49.9688 17.4813 51.4688 18.3563 52.7531 18.3563C54.1625 18.3563 55.2906 17.5125 56.1688 16.0406C56.45 17.3531 57.2 18.325 58.55 18.325C60.65 18.325 62.4969 16.1656 62.4969 14.3781C62.5281 14.0031 62.3094 13.6906 62.0906 13.6906ZM18.2313 16.6656C17.3875 16.6656 17.0438 15.8219 17.0438 14.5344C17.0438 12.3125 18.575 8.58437 20.175 8.58437C20.8625 8.58437 21.1437 9.39688 21.1437 10.4313C21.1437 12.6875 19.7063 16.6656 18.2313 16.6656ZM47.4594 10.025C46.9594 9.43125 46.7719 8.58437 46.7719 7.8625C46.7719 6.95625 47.1156 6.20313 47.4906 6.20313C47.8656 6.20313 48.0219 6.57812 48.0219 7.14062C47.9906 8.01875 47.6781 9.36563 47.4594 10.025ZM54.0687 16.6656C53.225 16.6656 52.8813 15.6656 52.8813 14.5344C52.8813 12.375 54.4125 8.58437 56.0125 8.58437C56.7 8.58437 56.95 9.39688 56.95 10.4313C56.9813 12.6875 55.575 16.6656 54.0687 16.6656Z" fill="white"/>
</svg>
