<?xml version="1.0" encoding="UTF-8"?>
<svg version="1.1" xmlns="http://www.w3.org/2000/svg" width="100" height="100">
<path d="M0 0 C7.83026356 10.35460296 5.95318751 24.4443349 5.19717216 36.69743156 C5.0368128 39.68929554 4.9775004 42.6795589 4.92179108 45.67493439 C4.8531427 49.26858958 4.74203937 52.86038831 4.61746025 56.45249748 C4.5947871 57.12824444 4.57211395 57.80399139 4.54875374 58.50021553 C4.47411602 60.40672238 4.36611664 62.31183489 4.25662041 64.21665764 C4.17040932 65.83587624 4.17040932 65.83587624 4.08245659 67.48780632 C3.29805088 70.98005373 2.35899493 72.21698602 -0.54660225 74.28843498 C-3.27853584 74.79636955 -3.27853584 74.79636955 -6.44503975 74.80601311 C-8.22708809 74.82492607 -8.22708809 74.82492607 -10.04513741 74.84422112 C-11.3243708 74.83612419 -12.6036042 74.82802727 -13.92160225 74.81968498 C-15.23821846 74.82351189 -16.55483467 74.82733879 -17.91134834 74.83128166 C-20.69555659 74.83717222 -23.47925074 74.82862912 -26.26339912 74.80991936 C-29.82809558 74.78712874 -33.39158742 74.80025439 -36.9562397 74.82420921 C-40.36145655 74.84215829 -43.76635119 74.82958276 -47.17160225 74.81968498 C-48.45083565 74.82778191 -49.73006905 74.83587883 -51.04806709 74.84422112 C-52.23609932 74.83161247 -53.42413155 74.81900383 -54.64816475 74.80601311 C-55.69311104 74.80283073 -56.73805733 74.79964836 -57.81466866 74.79636955 C-60.54660225 74.28843498 -60.54660225 74.28843498 -62.88389778 72.76916313 C-65.21355634 69.29335027 -65.09870509 66.12260515 -65.04831123 62.07920647 C-65.05371422 61.25438774 -65.0591172 60.42956902 -65.06468391 59.57975578 C-65.07718171 56.85598071 -65.06067503 54.13326038 -65.042696 51.40952873 C-65.04285095 49.51671099 -65.04433925 47.62389292 -65.04710579 45.73107719 C-65.0484902 41.76576003 -65.0359235 37.80080439 -65.01315498 33.83555412 C-64.98475085 28.74866825 -64.98751237 23.66238225 -65.00024509 18.57545185 C-65.0071938 14.66784335 -64.99942258 10.76037395 -64.98698807 6.8527832 C-64.98246706 4.97686674 -64.98214242 3.10093538 -64.98605347 1.22501755 C-64.98895827 -1.39421112 -64.9724949 -4.01260744 -64.95065498 -6.63173103 C-64.95515663 -7.4094738 -64.95965828 -8.18721657 -64.96429634 -8.9885273 C-64.89219869 -14.18256361 -64.89219869 -14.18256361 -63.25569344 -16.68754768 C-60.1742266 -18.53383622 -56.61509962 -18.23822225 -53.11691475 -18.29359627 C-51.875895 -18.32763809 -51.875895 -18.32763809 -50.60980415 -18.36236763 C-48.85989806 -18.40694656 -47.10979538 -18.44430713 -45.35959053 -18.47499275 C-42.68802727 -18.52376516 -40.01820274 -18.59928672 -37.3473835 -18.67836189 C-35.64559751 -18.71837599 -33.94377418 -18.75683835 -32.24191475 -18.79359627 C-31.44592873 -18.81638145 -30.6499427 -18.83916664 -29.82983589 -18.86264229 C-29.07910805 -18.87313103 -28.3283802 -18.88361977 -27.55490303 -18.89442635 C-26.89998878 -18.90758385 -26.24507454 -18.92074135 -25.57031441 -18.93429756 C-15.46865849 -17.82249542 -6.26925114 -7.47698092 0 0 Z M-59.23196602 -12.64937019 C-61.21670834 -9.72381265 -60.97252568 -6.78123795 -60.95065498 -3.36610603 C-60.95751823 -2.62106819 -60.96438148 -1.87603035 -60.97145271 -1.1084156 C-60.9897643 1.35609267 -60.98587709 3.81996698 -60.980196 6.28452873 C-60.98475589 7.99701966 -60.99006088 9.70950875 -60.9960804 11.42199516 C-61.00502016 15.01239769 -61.0025788 18.6025779 -60.99264717 22.192976 C-60.98115911 26.79450213 -61.00136163 31.39526071 -61.03056431 35.99668598 C-61.04890991 39.53374928 -61.04863711 43.07062812 -61.04292679 46.60772705 C-61.04277336 48.30420381 -61.04883577 50.0006929 -61.06121826 51.69712448 C-61.07609526 54.06976652 -61.06547684 56.44098405 -61.04831123 58.81358147 C-61.0579792 59.51449409 -61.06764717 60.21540672 -61.07760811 60.93755913 C-61.02832804 64.19004343 -60.72394874 66.03570891 -58.83799934 68.72326469 C-56.11116962 70.58586323 -54.66411781 70.79444588 -51.38253975 70.80601311 C-50.35467354 70.81862175 -49.32680733 70.83123039 -48.26779366 70.84422112 C-47.16355049 70.83612419 -46.05930733 70.82802727 -44.92160225 70.81968498 C-43.7825544 70.82351189 -42.64350655 70.82733879 -41.46994209 70.83128166 C-39.06254378 70.83400272 -36.65511599 70.82662808 -34.24777412 70.80991936 C-30.56025543 70.78851424 -26.87468525 70.80971631 -23.18722725 70.83530998 C-20.84868128 70.83266674 -18.51013652 70.82754185 -16.17160225 70.81968498 C-14.5152375 70.83183037 -14.5152375 70.83183037 -12.82541084 70.84422112 C-11.28361153 70.82530815 -11.28361153 70.82530815 -9.71066475 70.80601311 C-8.35642403 70.80123955 -8.35642403 70.80123955 -6.97482491 70.79636955 C-3.69073674 70.1094054 -2.52300008 68.97363436 -0.54660225 66.28843498 C0.0287527 63.63354628 0.0287527 63.63354628 -0.09250069 60.69370842 C-0.09280281 59.57284843 -0.09310493 58.45198845 -0.09341621 57.29716301 C-0.11406136 56.09287651 -0.1347065 54.88859001 -0.15597725 53.64780998 C-0.16446693 51.79183189 -0.16446693 51.79183189 -0.17312813 49.8983593 C-0.19171974 46.61665562 -0.22762726 43.33574217 -0.27194405 40.05430412 C-0.3129406 36.70273432 -0.33080724 33.35113054 -0.35128975 29.99937248 C-0.39540321 23.42875108 -0.46235148 16.85865766 -0.54660225 10.28843498 C-1.17228096 10.26861565 -1.79795967 10.24879631 -2.44259834 10.22837639 C-5.26936744 10.13329272 -8.09538039 10.02354752 -10.92160225 9.91343498 C-11.906446 9.88249748 -12.89128975 9.85155998 -13.90597725 9.81968498 C-15.31750069 9.76167717 -15.31750069 9.76167717 -16.75753975 9.70249748 C-17.62685127 9.67107658 -18.4961628 9.63965569 -19.39181709 9.60728264 C-21.54660225 9.28843498 -21.54660225 9.28843498 -23.54660225 7.28843498 C-23.86544991 5.13364983 -23.86544991 5.13364983 -23.96066475 2.49937248 C-24.01867256 1.08784904 -24.01867256 1.08784904 -24.07785225 -0.35219002 C-24.10878975 -1.33703377 -24.13972725 -2.32187752 -24.17160225 -3.33656502 C-24.22961006 -4.82543221 -24.22961006 -4.82543221 -24.28878975 -6.34437752 C-24.38323365 -8.79991887 -24.468801 -11.25544912 -24.54660225 -13.71156502 C-29.19134207 -13.78572569 -33.83573724 -13.84017116 -38.48092842 -13.87635994 C-40.06106761 -13.89144596 -41.64116494 -13.91191752 -43.2211628 -13.93788338 C-45.4925081 -13.97427628 -47.76329984 -13.99129264 -50.0348835 -14.00453377 C-50.74123436 -14.02001762 -51.44758522 -14.03550148 -52.17534065 -14.05145454 C-55.88673422 -14.07195871 -55.88673422 -14.07195871 -59.23196602 -12.64937019 Z M-20.54660225 -10.71156502 C-20.57361633 -8.60746863 -20.59300448 -6.50327324 -20.60910225 -4.39906502 C-20.62070381 -3.22730721 -20.63230537 -2.05554939 -20.6442585 -0.84828377 C-20.69560123 2.31902693 -20.69560123 2.31902693 -19.54660225 5.28843498 C-16.12427253 6.42921156 -13.45987007 6.38658615 -9.85910225 6.35093498 C-8.67961006 6.34191154 -7.50011787 6.33288811 -6.2848835 6.32359123 C-5.38125069 6.31198967 -4.47761787 6.30038811 -3.54660225 6.28843498 C-8.51821443 0.27016761 -13.84489468 -5.37493854 -19.54660225 -10.71156502 C-19.87660225 -10.71156502 -20.20660225 -10.71156502 -20.54660225 -10.71156502 Z " fill="#FFFFFF" transform="translate(80.54660224914551,21.711565017700195)"/>
<path d="M0 0 C0.7027002 -0.00191345 1.40540039 -0.0038269 2.12939453 -0.00579834 C3.61556354 -0.00715975 5.10174445 -0.00346632 6.58789062 0.00488281 C8.86615646 0.01558346 11.14363377 0.00498661 13.421875 -0.0078125 C14.86458508 -0.0064909 16.30729466 -0.00392849 17.75 0 C19.06742188 0.00225586 20.38484375 0.00451172 21.7421875 0.00683594 C24.875 0.265625 24.875 0.265625 26.875 2.265625 C27.13378906 5.3984375 27.13378906 5.3984375 27.140625 9.390625 C27.14349518 10.44467529 27.14349518 10.44467529 27.14642334 11.52001953 C27.14778475 13.00618854 27.14409132 14.49236945 27.13574219 15.97851562 C27.12504154 18.25678146 27.13563839 20.53425877 27.1484375 22.8125 C27.1471159 24.25521008 27.14455349 25.69791966 27.140625 27.140625 C27.13836914 28.45804688 27.13611328 29.77546875 27.13378906 31.1328125 C26.875 34.265625 26.875 34.265625 24.875 36.265625 C21.7421875 36.52441406 21.7421875 36.52441406 17.75 36.53125 C17.0472998 36.53316345 16.34459961 36.5350769 15.62060547 36.53704834 C14.13443646 36.53840975 12.64825555 36.53471632 11.16210938 36.52636719 C8.88384354 36.51566654 6.60636623 36.52626339 4.328125 36.5390625 C2.88541492 36.5377409 1.44270534 36.53517849 0 36.53125 C-1.31742188 36.52899414 -2.63484375 36.52673828 -3.9921875 36.52441406 C-7.125 36.265625 -7.125 36.265625 -9.125 34.265625 C-9.38378906 31.1328125 -9.38378906 31.1328125 -9.390625 27.140625 C-9.39253845 26.4379248 -9.3944519 25.73522461 -9.39642334 25.01123047 C-9.39778475 23.52506146 -9.39409132 22.03888055 -9.38574219 20.55273438 C-9.37504154 18.27446854 -9.38563839 15.99699123 -9.3984375 13.71875 C-9.3971159 12.27603992 -9.39455349 10.83333034 -9.390625 9.390625 C-9.38836914 8.07320312 -9.38611328 6.75578125 -9.38378906 5.3984375 C-8.87226161 -0.79394015 -5.32764374 0.00912268 0 0 Z M-3.125 4.265625 C-3.785 5.585625 -4.445 6.905625 -5.125 8.265625 C4.115 8.265625 13.355 8.265625 22.875 8.265625 C22.215 6.945625 21.555 5.625625 20.875 4.265625 C12.955 4.265625 5.035 4.265625 -3.125 4.265625 Z M-5.125 12.265625 C-5.125 16.225625 -5.125 20.185625 -5.125 24.265625 C4.115 24.265625 13.355 24.265625 22.875 24.265625 C22.875 20.305625 22.875 16.345625 22.875 12.265625 C13.635 12.265625 4.395 12.265625 -5.125 12.265625 Z M-5.125 28.265625 C-4.465 29.585625 -3.805 30.905625 -3.125 32.265625 C4.795 32.265625 12.715 32.265625 20.875 32.265625 C21.535 30.945625 22.195 29.625625 22.875 28.265625 C13.635 28.265625 4.395 28.265625 -5.125 28.265625 Z " fill="#FFFFFF" transform="translate(41.125,43.734375)"/>
</svg>
