<?xml version="1.0" encoding="UTF-8"?>
<svg version="1.1" xmlns="http://www.w3.org/2000/svg" width="100" height="100">
<path d="M0 0 C0 3.96 0 7.92 0 12 C1.11560303 11.99476318 2.23120605 11.98952637 3.38061523 11.98413086 C7.50479333 11.96608225 11.62896791 11.95456851 15.75317383 11.94506836 C17.54094021 11.94002782 19.32870245 11.93319546 21.11645508 11.92456055 C23.68051168 11.9124827 26.24451397 11.90676906 28.80859375 11.90234375 C29.6127623 11.89718246 30.41693085 11.89202118 31.24546814 11.88670349 C33.16401715 11.88650785 35.08245368 11.93798017 37 12 C38.91206302 13.91206302 38.12785765 17.36126384 38.12939453 19.890625 C38.13202301 20.97108093 38.13202301 20.97108093 38.13470459 22.07336426 C38.13912288 24.46560034 38.13618521 26.8577631 38.1328125 29.25 C38.13348555 30.90527358 38.13445558 32.56054707 38.13571167 34.21582031 C38.13718861 37.68946267 38.13503421 41.16307937 38.13037109 44.63671875 C38.1246738 49.09932498 38.12795283 53.56187108 38.13394356 58.0244751 C38.13754927 61.4438523 38.13641054 64.86321515 38.13381577 68.28259277 C38.13314652 69.92850756 38.13397482 71.57442363 38.13629532 73.22033691 C38.13882202 75.51671831 38.13498103 77.81300099 38.12939453 80.109375 C38.12859894 81.41874023 38.12780334 82.72810547 38.12698364 84.07714844 C38 87 38 87 37 88 C34.26105915 88.08858646 31.5474673 88.11523479 28.80859375 88.09765625 C27.98875504 88.0962413 27.16891632 88.09482635 26.32423401 88.09336853 C23.69528618 88.08775289 21.06642227 88.07519779 18.4375 88.0625 C16.65950643 88.05748701 14.88151154 88.05292376 13.10351562 88.04882812 C8.73564455 88.03777839 4.36783652 88.02050331 0 88 C0 91.96 0 95.92 0 100 C-6.96781687 100.29400071 -13.33511974 99.17388137 -20.15625 97.8125 C-21.67750488 97.51762695 -21.67750488 97.51762695 -23.22949219 97.21679688 C-26.98792342 96.48602203 -30.74381928 95.74225576 -34.5 95 C-42.915 93.35 -51.33 91.7 -60 90 C-60 63.6 -60 37.2 -60 10 C-51.585 8.35 -43.17 6.7 -34.5 5 C-31.85806641 4.47792969 -29.21613281 3.95585938 -26.49414062 3.41796875 C-24.38162563 3.0072195 -22.26900243 2.59702621 -20.15625 2.1875 C-19.0744043 1.97158203 -17.99255859 1.75566406 -16.87792969 1.53320312 C-11.13861985 0.42847804 -5.8446968 -0.24661168 0 0 Z M-11.62329102 5.81030273 C-12.55758438 5.98726181 -13.49187775 6.16422089 -14.45448303 6.34654236 C-15.46079269 6.54026932 -16.46710236 6.73399628 -17.50390625 6.93359375 C-19.05524513 7.22968285 -19.05524513 7.22968285 -20.63792419 7.53175354 C-22.82455264 7.94989207 -25.01091215 8.36943909 -27.19702148 8.7902832 C-30.55176747 9.43543602 -33.90764183 10.07445518 -37.26367188 10.71289062 C-39.38548746 11.11942237 -41.50723464 11.5263113 -43.62890625 11.93359375 C-45.14140709 12.22114784 -45.14140709 12.22114784 -46.6844635 12.51451111 C-47.61560471 12.69462234 -48.54674591 12.87473358 -49.50610352 13.06030273 C-50.32756363 13.21796616 -51.14902374 13.37562958 -51.99537659 13.53807068 C-54.05649816 13.93035249 -54.05649816 13.93035249 -56 15 C-56 38.1 -56 61.2 -56 85 C-48.92570585 86.76857354 -41.98455455 88.49174254 -34.83984375 89.82421875 C-34.04268448 89.97534622 -33.24552521 90.12647369 -32.42420959 90.28218079 C-30.76693362 90.59550824 -29.10933371 90.90712705 -27.45141602 91.21704102 C-24.91004212 91.69263852 -22.37002803 92.17506445 -19.83007812 92.65820312 C-18.20840879 92.96394217 -16.58666662 93.26929521 -14.96484375 93.57421875 C-13.83054176 93.78977669 -13.83054176 93.78977669 -12.67332458 94.00968933 C-9.73407172 94.5560793 -6.99703536 95 -4 95 C-4 65.3 -4 35.6 -4 5 C-6.72177719 5 -8.96255659 5.30269467 -11.62329102 5.81030273 Z M0 16 C0 19.96 0 23.92 0 28 C2.64 28 5.28 28 8 28 C8 32.62 8 37.24 8 42 C12.62 42 17.24 42 22 42 C20.23822715 53.01108033 20.23822715 53.01108033 16 57 C12.64314088 59.09239201 9.66215066 59.36985974 5.75 59.625 C4.67234375 59.69976562 3.5946875 59.77453125 2.484375 59.8515625 C1.66453125 59.90054688 0.8446875 59.94953125 0 60 C0 63.3 0 66.6 0 70 C6.6 70 13.2 70 20 70 C20 71.32 20 72.64 20 74 C13.4 74 6.8 74 0 74 C0 77.3 0 80.6 0 84 C11.22 84 22.44 84 34 84 C34 61.56 34 39.12 34 16 C22.78 16 11.56 16 0 16 Z M0 34 C0 40.6 0 47.2 0 54 C3.23304479 55.6165224 6.50525801 55.58353762 10 55 C12.5997004 53.60829743 13.93303118 52.21821044 16 50 C16.33 48.68 16.66 47.36 17 46 C12.71 46 8.42 46 4 46 C4 41.71 4 37.42 4 33 C1.9254644 32.8509288 1.9254644 32.8509288 0 34 Z " fill="#FFFFFF" transform="translate(60,0)"/>
<path d="M0 0 C3.196875 -0.061875 6.39375 -0.12375 9.6875 -0.1875 C11.18543091 -0.22846802 11.18543091 -0.22846802 12.71362305 -0.27026367 C17.6083792 -0.31612889 21.10462817 -0.31441772 25 3 C28.43221061 6.64342357 28.6214205 9.59970777 28.4921875 14.453125 C27.68046328 18.65347571 25.29879887 21.3754082 22 24 C18.98509443 25.00496852 16.95818308 25.10335303 13.8125 25.0625 C12.224375 25.041875 10.63625 25.02125 9 25 C9 29.29 9 33.58 9 38 C6.03 38 3.06 38 0 38 C0 25.46 0 12.92 0 0 Z M9 7 C9 10.63 9 14.26 9 18 C13.1460881 18.34778172 13.1460881 18.34778172 16.875 16.8125 C18.42229478 14.31963619 18.50405716 12.88032665 18 10 C16.38442803 8.05893971 16.38442803 8.05893971 14 7 C12.35 7 10.7 7 9 7 Z " fill="#FFFFFF" transform="translate(16,31)"/>
<path d="M0 0 C9.36842105 0 9.36842105 0 14 4 C18.4684252 9.17396602 18 10.47910243 18 18 C12.06 18 6.12 18 0 18 C0 12.06 0 6.12 0 0 Z M4 5 C4 7.97 4 10.94 4 14 C6.97 14 9.94 14 13 14 C11.65365543 9.5937814 9.80625626 7.56922298 6 5 C5.34 5 4.68 5 4 5 Z " fill="#FFFFFF" transform="translate(70,22)"/>
</svg>
